<?xml version="1.0" encoding="UTF-8"?>
<svg xmlns="http://www.w3.org/2000/svg" version="1.1" viewBox="0 0 1000 300">
  <!-- Generator: Adobe Illustrator 28.6.0, SVG Export Plug-In . SVG Version: 1.2.0 Build 709)  -->
  <g>
    <g id="Layer_1">
      <g>
        <polygon points="129.3 264.4 166.5 183.8 129.3 183.8 129.3 264.4"/>
        <polygon points="88.3 180 124.2 180 107 147.6 88.3 180"/>
        <polygon points="125.6 264.4 125.6 183.8 88.4 183.8 125.6 264.4"/>
        <polygon points="181.1 144.8 150.6 144.8 169.2 177.2 181.1 144.8"/>
        <polygon points="166.6 180 147.9 147.6 130.7 180 166.6 180"/>
        <polygon points="170.8 183.8 170 185.9 169.8 185.6 131.5 268.5 210.9 183.8 170.8 183.8"/>
        <polygon points="127.4 178.3 145.2 144.8 127.4 144.8 109.7 144.8 127.4 178.3"/>
        <polygon points="172.1 180 211.1 180 184.4 146.5 172.1 180"/>
        <polygon points="85.7 177.2 104.3 144.8 73.8 144.8 85.7 177.2"/>
        <polygon points="85.1 185.6 84.9 185.9 84.1 183.8 44 183.8 123.4 268.5 85.1 185.6"/>
        <polygon points="82.8 180 70.5 146.5 43.8 180 82.8 180"/>
      </g>
      <g>
        <g>
          <rect x="82.7" y="126.7" width="89.5" height="7.1" fill="#fbb040"/>
          <path d="M74.7,92.9c11.5,0,20.2-3.2,27-8-18.7-24.5-48.2-22.9-48.2-22.9l15.8,30.5,3.3.3s.8,0,2.1,0h0Z" fill="#fbb040"/>
          <path d="M182.3,92.8l3.3-.3,15.9-30.5s-29.5-1.6-48.2,22.9c6.7,4.7,15.5,8,27,8s2.1,0,2.1,0h0Z" fill="#fbb040"/>
          <rect x="113.1" y="37.4" width="28.7" height="28.7" transform="translate(.7 105.3) rotate(-45)" fill="#fbb040"/>
          <path d="M134.8,72l-7.3,7.3-7.3-7.3c-16.3,28.9-48,25.9-48,25.9l10.6,22.9h89.5l10.6-22.9s-31.6,3-48-25.9h0ZM89.3,110.9c-2.1,0-3.8-1.7-3.8-3.8s1.7-3.8,3.8-3.8,3.8,1.7,3.8,3.8-1.7,3.8-3.8,3.8ZM107,108.1c-2.1,0-3.8-1.7-3.8-3.8s1.7-3.8,3.8-3.8,3.8,1.7,3.8,3.8-1.7,3.8-3.8,3.8ZM127.4,112.9l-11.2-11.2,11.2-11.2,11.2,11.2-11.2,11.2ZM147.9,108.1c-2.1,0-3.8-1.7-3.8-3.8s1.7-3.8,3.8-3.8,3.8,1.7,3.8,3.8-1.7,3.8-3.8,3.8ZM165.6,110.9c-2.1,0-3.8-1.7-3.8-3.8s1.7-3.8,3.8-3.8,3.8,1.7,3.8,3.8-1.7,3.8-3.8,3.8Z" fill="#fbb040"/>
        </g>
        <g>
          <path d="M100.1,42.2c.1.8.2,1.7.2,2.6,0,9.3-7.6,16.9-16.9,16.9s-6.7-1.1-9.4-2.9c2.6,4.7,7.7,7.9,13.5,7.9,8.5,0,15.5-6.9,15.5-15.5s-1.1-6.5-2.9-9h0Z" fill="#fbb040"/>
          <path d="M154.8,42.2c-.1.8-.2,1.7-.2,2.6,0,9.3,7.6,16.9,16.9,16.9s6.7-1.1,9.4-2.9c-2.6,4.7-7.7,7.9-13.5,7.9-8.6,0-15.5-6.9-15.5-15.5s1.1-6.5,2.9-9h0Z" fill="#fbb040"/>
        </g>
      </g>
      <path d="M360.6,137.7c-.5,3.5-2.3,13.2-2.9,15.6h-48.4v-1.6c8.5-1.2,9.2-1.7,9.2-10.5v-40.2c0-8.9-.5-9.7-7.5-10.5v-1.6h30c9.7,0,13.6,0,14.4-.2,0,3.8.5,10.1,1,14.4l-1.6.3c-.8-2.5-2.1-6.1-4.3-8.7-1.8-2.2-4-2.8-9.8-2.8h-7.4c-2.1,0-2.5.4-2.5,2.4v23.7h9.6c7.8,0,8.1-2.2,9.5-8.3h1.6v19.6h-1.6c-1.4-5.8-1.7-8.3-9.5-8.3h-9.6v21.1c0,6.9,1.5,8.2,7.6,8.3h5.8c5.8,0,7.2-.8,9.7-3.5,1.8-2,3.4-5.4,5.1-9.4l1.5.3Z"/>
      <path d="M365.5,153.3v-1.6c5.3-.9,5.5-1.4,5.5-9v-47.3c0-6.1-.3-6.7-5.3-7.9v-1.4c5-.4,11.4-1.6,16.9-3.4,0,1.6-.4,5.2-.4,13.6v46.4c0,7.6.2,8,5.3,9v1.6h-22.1Z"/>
      <path d="M429.7,143.4c-5.9,8.4-13.5,11-17,11-12.4,0-19.7-9.8-19.7-20.6s2.9-13.2,7-17.4c4.5-4.7,9.4-6.2,14.1-6.2,9.4,0,15.5,6.8,15.6,14.7,0,1.6,0,2.2-.5,2.3-3.2.6-15.8,1.5-25.1,1.9,0,12.2,7,17.8,13.9,17.8s7.1-.9,10.9-4.6l.9,1.2ZM411.3,112.7c-3.7,0-6.5,4-7,13.4,4,0,7.8,0,11.8-.3,1.5,0,2.4-.2,2.4-1.4,0-5.9-2.9-11.7-7.1-11.7Z"/>
      <path d="M448.1,140.5c-1.4,1.5-1.7,3.1-1.7,3.9,0,1.7,1.6,4.1,6,4.1h10.6c7.4,0,14.4,3.5,14.4,11.9s-12.2,20.1-25.3,20.1-17.3-6.7-17.3-12.2.9-3.5,2.9-5.1c1.7-1.4,4.3-3,8.1-5.3-4.3-1.5-6.6-3.6-7.9-5.7-.9-1.5-1.5-3.8-1.3-5.2,2.7-1.7,7.8-4.8,9.9-7.3l1.6.8ZM453.8,141.4c-9.6,0-17-6-17-14.9s9.6-16.4,17.9-16.4,6.4.8,9.8,2.5c2.4.4,9.6-.6,13.5-2l.3.3c-.6,2-2.8,5.2-3.6,5.9-1.4,0-4.8,0-6.3-.2,1.9,2.3,3,5.4,3,8.9,0,10.3-8.9,15.8-17.5,15.8ZM454.4,157.9c-4,0-5.7.2-6.5.7-2.8,1.8-4.4,4.2-4.4,7.1,0,5.4,5.1,10.6,14,10.6s11.9-4.4,11.9-9.5-2.6-6.5-5.6-7.7c-2.3-.9-4.8-1.2-9.4-1.2ZM453.5,112.3c-3.5,0-5.6,4.6-5.6,12.2s2.3,14.8,6.8,14.8,5.6-4.2,5.6-12.8-2.3-14.2-6.8-14.2Z"/>
      <path d="M510,154.4c-2.5,0-4.3-.7-5.6-2s-1.9-2.7-2.3-4.4c-3.2,2.5-8.2,6.3-10,6.3-7,0-11.8-5.9-11.8-11.8s2.2-7,6.6-8.6c5.4-2,12.6-3.8,15-5.6v-5.8c0-6.1-3.8-9-6.6-9s-3.1.8-4.1,2.2c-.7,1-1.4,2.8-2.3,6.5-.5,2-1.2,2.7-2.6,2.7-3.2,0-5.2-2.6-5.2-4.6s.9-2.3,2.9-3.6c5-3.2,11.2-6,15-6.7,4.3,0,6.6,1.3,8.8,2.8,4.1,3.2,5.1,7.1,5.1,12.9v17c0,4.1,1.5,5.5,3.3,5.5s1.6,0,2.3-.4l.5,1.6-9,5ZM502,130.6c-1.5.8-3.1,1.3-5.2,2.4-3.7,2-5.4,3.8-5.4,7.2,0,5.5,3,7.7,5.8,7.7s2.9-.2,4.6-1.6c0-5.7,0-10,0-15.8Z"/>
      <path d="M548.2,153.3v-1.6c4.8-.7,5-1.6,5-9.9v-16c0-7.1-3.2-9.2-6.6-9.2s-5.1.7-7.5,2.8v24.2c0,6.9.5,7,5.2,8.1v1.6h-22.2v-1.6c5.2-1.2,5.7-1.7,5.7-9.1v-20.5c0-5-.7-5.6-4.6-6.9v-1.3c5.6-.7,11.8-2.3,16.1-3.9,0,2.4-.2,4.9-.2,7.2,2.4-1.6,4-2.9,5.8-4.1,3.1-2.1,4.9-3,7.5-3,8.3,0,12.1,6.1,12.1,15.2v18.1c0,6.9.4,7.3,4.8,8.2v1.6h-21Z"/>
      <path d="M611.4,143.8c-4.3,5.8-10.3,10.6-16.4,10.6-12.9,0-19.8-10.1-19.8-20.3s3.5-13.4,9.5-17.9c6.1-4.6,12.1-6,15.9-6s5.9.8,7.8,2.2c1.2,1,1.9,1.7,1.9,2.9,0,2.3-2.5,5-4.2,5s-.9,0-1.9-1c-3.8-3.6-7.6-4.9-10.7-4.9s-7.5,2.4-7.5,13.9,7.9,18.5,13.8,18.5,7.2-.9,10.7-4.1l.9,1.2Z"/>
      <path d="M652.8,143.4c-5.9,8.4-13.5,11-17,11-12.4,0-19.7-9.8-19.7-20.6s2.9-13.2,7-17.4c4.5-4.7,9.4-6.2,14.1-6.2,9.4,0,15.5,6.8,15.6,14.7,0,1.6,0,2.2-.5,2.3-3.2.6-15.8,1.5-25.1,1.9,0,12.2,7,17.8,13.9,17.8s7.1-.9,10.9-4.6l.9,1.2ZM634.4,112.7c-3.7,0-6.5,4-7,13.4,4,0,7.8,0,11.8-.3,1.5,0,2.4-.2,2.4-1.4,0-5.9-2.9-11.7-7.1-11.7Z"/>
      <path d="M705.2,153.3v-1.6c6.8-1.5,6.9-2.6,5.2-7.7-1.2-3.3-2.9-8.4-5-14h-18.1c-1.7,4.6-3.3,9-4.5,12.6-2.3,6.6-1.5,7.5,7.1,9.1v1.6h-21.5v-1.6c6.5-1.1,7.8-2.4,11.3-11.2l20.5-52.3,2.7-.4c6.2,17.5,12.7,34.8,19.2,52.1,3.5,9.5,4.5,10.5,10.5,11.8v1.6h-27.5ZM696.6,104.5c-3.1,8.2-5.4,15-8.1,22.3h15.8l-7.6-22.3Z"/>
      <path d="M749.9,114.4v28.9c0,6.7.3,7.3,4.9,8.3v1.6h-22v-1.6c5.4-.8,5.8-1.6,5.8-8.3v-28.9h-6.1l-.3-.7,1.8-2.4h4.7c0-9.3,3.8-16.6,11.5-22,3.2-2.2,6.9-4.2,11.2-4.8,6.9,0,10.4,3,11.7,4.8l-5.5,6.5c-2.7-3.5-5.9-7.3-11.4-7.3s-6.2,15.1-6.2,22.8h7.1v3.1h-7.1ZM755.4,111.3h8.3c0-9.9,3.4-18.3,10.8-24,3.4-2.6,6.8-4.2,11.1-4.8,3.8,0,5.5,1,6.9,2.3,1.4,1.2,1.4,3.1.6,4.6-.4,1-1.5,2.4-2.8,3.2-1.3.9-2.2.6-3-.2-2.7-2.9-5.8-4.9-8.6-4.9s-2.6,1.1-3.1,2.8c-.6,1.9-.7,7-.7,16.1v5h8.9c.4,1,0,2.6-.9,3.1h-8v28.9c0,6.9.8,7.3,7.2,8.3v1.6h-22.4v-1.6c3.6-1.1,3.9-1.5,3.9-8.3v-28.9h-8.3v-3.1Z"/>
      <path d="M815.6,154.4c-2.5,0-4.3-.7-5.6-2s-1.9-2.7-2.3-4.4c-3.2,2.5-8.2,6.3-10,6.3-7,0-11.8-5.9-11.8-11.8s2.2-7,6.6-8.6c5.4-2,12.6-3.8,15-5.6v-5.8c0-6.1-3.8-9-6.6-9s-3.1.8-4.1,2.2c-.7,1-1.4,2.8-2.3,6.5-.5,2-1.2,2.7-2.6,2.7-3.2,0-5.2-2.6-5.2-4.6s.9-2.3,2.9-3.6c5-3.2,11.2-6,15-6.7,4.3,0,6.6,1.3,8.8,2.8,4.1,3.2,5.1,7.1,5.1,12.9v17c0,4.1,1.5,5.5,3.3,5.5s1.6,0,2.3-.4l.5,1.6-9,5ZM807.6,130.6c-1.5.8-3.1,1.3-5.2,2.4-3.7,2-5.4,3.8-5.4,7.2,0,5.5,3,7.7,5.8,7.7s2.9-.2,4.6-1.6c0-5.7,0-10,0-15.8Z"/>
      <path d="M827.8,153.3v-1.6c5.3-.9,5.5-1.4,5.5-9v-20c0-5.7-.3-6.1-4.4-7.5v-1.4c5.8-.7,11.2-1.9,15.9-3.6,0,2.1-.2,7.7-.2,11.6v20.9c0,7.3.5,7.9,5.7,9v1.6h-22.5ZM838.1,101.6c-3.3,0-5.9-2.7-5.9-6.2s2.7-6.2,6-6.2,6.2,2.6,6.2,6.2-2.6,6.2-6.3,6.2Z"/>
      <path d="M877.2,153.3h-23v-1.6c5.1-.9,5.4-1.3,5.4-8.5v-21.1c0-5.2-.8-5.7-4.5-6.9v-1.3c5.2-.6,11-1.8,16.1-3.9,0,1.6-.3,6.8-.3,10.4,2.5-4.6,6.5-10.2,11.4-10.2s5.6,2,5.6,5.1-2.6,6.6-5,7.4c-1.3.5-1.8.3-2.5-.4-1.8-1.7-2.8-3-4.6-3s-3.4.8-5.1,4.3v19.6c0,7.2.8,7.4,6.3,8.5v1.6Z"/>
      <path d="M527.7,181.4v1c0,.2,0,.5,0,.7,0,.4.1.8,0,1.2,0,.4,0,.8-.1,1.2,0,.5-.1,1.1-.2,1.6s-.3,1-.7,1.5c0,.2-.2.4-.3.7-.5,1.1-1,2.2-1.6,3.4-.6,1.1-1.2,2.2-1.7,3.4-.4.9-.9,1.7-1.5,2.5-.5.8-1.1,1.6-1.6,2.5-.4.7-.9,1.4-1.3,2-.4.6-.9,1.3-1.4,2-.1.2-.3.5-.4.7-.1.2-.3.4-.5.6-.9,1-1.8,2.1-2.7,3.2-.8,1.1-1.7,2.2-2.7,3.2-.4.4-.8.8-1.1,1.1-.3.4-.7.7-1.1,1.1-.7.6-1.4,1.2-2,1.8-.7.6-1.3,1.2-1.8,1.9-.3.3-.6.6-.7.8-1.4,1.2-2.8,2.4-4.3,3.6-1.4,1.2-2.9,2.3-4.6,3.3-.5.3-1,.6-1.5.9-.5.3-1,.6-1.5.8-.5.3-1.2.6-1.9.9-.6.2-1.2.4-1.8.5-.6,0-1.2.1-1.9.1-.9,0-1.7-.4-2.3-.8,0,0-.2-.2-.3-.3,0,0-.2-.2-.3-.3-.4-.3-.6-.8-.7-1.4-.1-1.1,0-2.3.2-3.5.3-1.1.7-2,1.3-2.9.4-.6.8-1.2,1.1-1.8.3-.6.7-1.2,1.1-1.7,0,0,0,0,0-.1s0,0,0-.1c.1-.2.3-.4.5-.6.2-.1.4-.3.5-.6.1-.2.3-.5.4-.7.1-.2.3-.5.4-.7,0-.2.2-.4.4-.5.2-.1.3-.3.4-.5.4-.4.7-.8,1.1-1.2.3-.4.7-.8,1.1-1.2.1-.3.4-.6.7-.8.6-.6,1.3-1.3,1.9-1.9.6-.6,1.3-1.3,2-1.8.3-.3.6-.7.9-1l1-1c.5-.4,1-.9,1.4-1.3.4-.4.9-.8,1.3-1.2.7-.6,1.4-1.2,2.1-1.7.7-.5,1.4-1.1,2.1-1.6.2-.2.5-.4.8-.6.3-.2.6-.4,1-.5,0,0,0,0,.1,0s0,0,.1,0c.4-.2.8-.5,1.1-.7.4-.2.7-.5,1.1-.7.4-.2.8-.5,1.1-.7.4-.2.7-.5,1.1-.7.3-.2.7-.4,1.2-.6,0,0,.2-.2.4-.2.1,0,.3,0,.4-.2,1.2-.8,2.4-1.6,3.7-2.3,1.3-.7,2.6-1.4,3.9-2.1,0,0,.2,0,.2,0s0,0,.1,0c.6-.4,1-.9,1.2-1.5.3-.7.6-1.4.7-2.3,0-.7.2-1.5.3-2.2,0-.7.1-1.5.1-2.3,0-.7,0-1.4-.3-2.1-.1-.3-.2-.6-.3-.9,0-.3-.1-.6-.2-1-.3-1-.8-1.9-1.5-2.7-.2-.2-.4-.5-.5-.7-.1-.2-.3-.4-.5-.6-.7-.9-1.6-1.4-2.7-1.5-.7-.1-1.4-.3-2.1-.3-.7,0-1.4,0-2.1,0-1.4,0-2.8.2-4,.4-.6.1-1.1.3-1.5.4-.3,0-.7.2-1,.3-.3,0-.6.2-.9.3-.3.1-.7.3-1.2.5-.7.3-1.4.6-2.1.9-.7.3-1.4.7-2.1,1.1-1.8,1.1-3.5,2.3-5.3,3.6-1.7,1.3-3.4,2.6-5,4-.6.5-1.2,1.1-1.8,1.6-.6.5-1.2,1.1-1.7,1.6-.2.2-.5.4-.7.6-.2.2-.4.3-.6.5,0,0-.2.2-.4.2-.1,0-.3.1-.4.2-.3,0-.6.1-1,0-.4,0-.7-.3-.9-.7,0-.2-.2-.3-.3-.4,0-.2,0-.5,0-.8,0-.4.3-.8.5-1.2.4-.6.8-1.1,1.2-1.6.4-.5.9-1,1.4-1.5.2-.2.5-.5.8-.7.3-.2.5-.4.8-.7.8-.6,1.6-1.3,2.4-1.8.8-.6,1.6-1.2,2.4-1.7.7-.4,1.3-.8,2-1.3.6-.5,1.2-.9,1.9-1.4.6-.4,1.2-.8,1.8-1,.8-.2,1.5-.6,1.9-1,.4-.2.8-.4,1.2-.6.5-.2,1-.5,1.5-.6.5-.2,1-.4,1.5-.6,1.1-.4,2.3-.7,3.5-.8,1.2-.2,2.4-.3,3.6-.3.5,0,1,0,1.5,0,.5,0,1,0,1.5,0,1.1,0,2.3.1,3.4.4,1.1.3,2.2.6,3.3,1.1,1.5.6,2.8,1.5,3.9,2.7.6.6,1.1,1.3,1.6,2,.5.7.8,1.5,1.1,2.3.2.8.4,1.6.4,2.4v1.8ZM520.7,192.5c0-.1,0-.2,0-.3,0-.1,0-.3-.2-.5-.1-.2-.3-.2-.5-.2-.2,0-.4,0-.5,0-.5.2-1.1.5-1.6.7-.5.2-1,.5-1.6.7-.5.3-1.1.6-1.6.8-.5.3-1,.6-1.6,1-.2.1-.4.3-.6.4-.2.1-.4.3-.6.4-.7.4-1.4.8-2.1,1.3-.7.4-1.3.9-2,1.3-1.5,1-3,2-4.5,3.1-1.5,1.1-2.8,2.3-4.1,3.6s-.2.2-.3.3c-.1,0-.2.2-.3.3-.5.4-1,.8-1.5,1.3-.5.5-.9.9-1.4,1.4-.2.3-.5.6-.8.9-.3.3-.6.6-.8.9-.5.5-1,1.1-1.3,1.6-.3.5-.6,1-.9,1.5-.3.5-.6.9-1,1.4-.7.8-1.3,1.7-1.8,2.7-.5.9-1,1.9-1.5,2.9-.3.7-.6,1.4-.8,2.1-.2.7-.4,1.5-.6,2.2,0,.2,0,.4,0,.5,0,.1,0,.3,0,.5,0,.3.1.6.3.8.2.3.5.5.8.6.5.2,1,.2,1.5,0,.7-.2,1.4-.5,2.1-.7.7-.2,1.3-.5,1.9-.9.8-.4,1.6-.8,2.4-1.2.8-.4,1.5-.9,2.2-1.4.5-.4,1.1-.8,1.6-1.2.5-.4,1.1-.8,1.5-1.3l.3-.3c.1-.1.3-.2.4-.3.4-.2.8-.5,1.2-.9.4-.3.7-.7,1.1-1.1,1.6-1.8,3.3-3.7,5.1-5.5.7-.8,1.4-1.6,2-2.4s1.3-1.6,2-2.5c.3-.4.6-.8.8-1.1s.4-.8.5-1.2c0-.5.2-1,.6-1.5l1.3-2c.6-1.1,1.3-2.2,2-3.2s1.3-2.1,1.9-3.2c.2-.4.4-.8.5-1.2s.3-.8.4-1.3Z" fill="#fbb040"/>
      <path d="M530.1,210.7c-.5,0-1,0-1.3-.2,0,0-.2,0-.3-.1,0,0-.2,0-.4-.1,0,0-.2,0-.2-.1s-.1,0-.2-.1c-.2-.2-.5-.5-.7-.7-.2-.2-.4-.4-.6-.7-.2-.4-.2-.9,0-1.4,0-.4.2-.8.4-1.2.1-.4.3-.8.4-1.3,0-.1.1-.3.2-.5,0-.2.2-.4.3-.5.2-.4.4-1,.6-1.6,0-.5.3-.9.6-1.2.2-.6.7-1.3,1.4-1.8.3-.3.6-.6.8-.9.3-.3.6-.6.8-.8.2,0,.4-.2.5-.3.3,0,.6-.2.8-.3.3,0,.6-.2,1-.3,0,0,.2,0,.3,0h.3c.4,0,.7.2.8.4.4.3.7.7,1,1,.2.3.4.6.5,1s0,.8-.1,1.2c-.3.4-.6.8-1,1.1-.4.4-.8.7-1.2,1.1-.5.4-1,.8-1.5,1.2-.5.4-1,.8-1.5,1.2-.3.2-.7.3-1.2.3-.2,0-.3,0-.4,0-.3.1-.5.3-.6.4-.2.4-.3.7-.3.9-.2.5-.3,1.2-.2,1.8,0,0,.2.2.2.3,0,0,.1.2.3.3.4,0,.7.1,1,0,.6,0,1.2-.3,1.8-.5.7-.2,1.3-.5,1.9-.8.6-.3,1.1-.6,1.7-1,.6-.4,1.3-.8,1.9-1.1.6-.4,1.2-.7,1.9-1.1.3,0,.5-.1.7-.1.1,0,.3,0,.5,0,.2.1.2.2.2.3-.1.7-.5,1.3-1.1,1.8-.5.3-1.1.6-1.6,1-.5.4-1,.8-1.4,1.2-.4.2-.8.5-1.2.8-.4.3-.9.5-1.4.6-.3.1-.7.3-1.1.4-.4.1-.7.2-1.1.2-.3,0-.7.2-1,.2-.3,0-.7,0-1,0ZM534.7,199.3c0,0-.1-.2-.1-.3s0-.1,0-.1h-.4c0,0-.1.2-.3.4-.5.5-1,1-1.4,1.5-.5.5-.8,1.1-1.1,1.8,0,.2,0,.3,0,.3h.2c.2-.2.5-.5.7-.7s.5-.5.7-.7c.4-.2.7-.5,1-.9.2-.3.5-.7.7-1,0,0,.1-.2.1-.3Z" fill="#fbb040"/>
      <path d="M551.4,199.3c-.2,1.1-.4,2.1-.3,2.9,0,.9,0,1.6.2,2.2,0,.6.2,1,.3,1.4,0,.3,0,.5,0,.5.7-.1,1.4-.4,2.1-.8.6-.4,1.2-.8,1.8-1.3.5-.5,1-1,1.5-1.5s.9-.9,1.2-1.3c1.1-1.4,2.1-2.7,3.2-3.9s1.9-2.7,2.6-4.2c0,0,.2,0,.2-.1,0,0,0-.2.2-.3.5-.4.8-.3,1,.2,0,.3,0,.6,0,1,0,.4,0,.7,0,1.1-.2.6-.4,1.3-.7,1.9-.3.6-.6,1.2-1,1.7-2,2.9-4.2,5.7-6.6,8.3-.4.4-.8.8-1.2,1.1-.4.3-.9.6-1.6.9-2.1.9-3.8.3-5.2-2,0-.3-.2-.6-.4-.9-.2-.3-.4-.6-.6-.9l-2,2c-.6.8-1.4,1.4-2.5,1.8-.5.2-1,.3-1.5.2-.5,0-.9-.3-1.3-.8-.9-.7-1.2-1.6-1-2.7.2-1.4.5-2.8.8-4.2.3-1.4.7-2.8,1.3-4.1,0-.3.3-.6.5-.8.2-.2.5-.4.9-.4s1.1,0,1.6-.2c.5-.1,1,.1,1.4.8-.8,1.3-1.5,2.6-2,4.1-.6,1.5-1,2.9-1.2,4.4.3.2.5.2.7.1s.3-.2.6-.3c.5-.6,1.1-1.2,1.5-1.9.5-.7,1.1-1.3,1.7-1.9.2-.2.4-.4.6-.7.2-.3.4-.6.6-.8s.4-.4.6-.6c.1-.1.3-.2.5-.2.2,0,.4,0,.7,0,.3,0,.7,0,1.1.2Z" fill="#fbb040"/>
      <path d="M567.2,210.7c-.5,0-1,0-1.3-.2,0,0-.2,0-.3-.1,0,0-.2,0-.4-.1,0,0-.2,0-.2-.1s-.1,0-.2-.1c-.2-.2-.5-.5-.7-.7-.2-.2-.4-.4-.6-.7-.2-.4-.2-.9,0-1.4,0-.4.2-.8.4-1.2.1-.4.3-.8.4-1.3,0-.1.1-.3.2-.5,0-.2.2-.4.3-.5.2-.4.4-1,.6-1.6,0-.5.3-.9.6-1.2.2-.6.7-1.3,1.4-1.8.3-.3.6-.6.8-.9.3-.3.6-.6.8-.8.2,0,.4-.2.5-.3.3,0,.6-.2.8-.3.3,0,.6-.2,1-.3,0,0,.2,0,.3,0h.3c.4,0,.7.2.8.4.4.3.7.7,1,1,.2.3.4.6.5,1s0,.8-.1,1.2c-.3.4-.6.8-1,1.1-.4.4-.8.7-1.2,1.1-.5.4-1,.8-1.5,1.2-.5.4-1,.8-1.5,1.2-.3.2-.7.3-1.2.3-.2,0-.3,0-.4,0-.3.1-.5.3-.6.4-.2.4-.3.7-.3.9-.2.5-.3,1.2-.2,1.8,0,0,.2.2.2.3,0,0,.1.2.3.3.4,0,.7.1,1,0,.6,0,1.2-.3,1.8-.5.7-.2,1.3-.5,1.9-.8.6-.3,1.1-.6,1.7-1,.6-.4,1.3-.8,1.9-1.1.6-.4,1.2-.7,1.9-1.1.3,0,.5-.1.7-.1.1,0,.3,0,.5,0,.2.1.2.2.2.3-.1.7-.5,1.3-1.1,1.8-.5.3-1.1.6-1.6,1-.5.4-1,.8-1.4,1.2-.4.2-.8.5-1.2.8-.4.3-.9.5-1.4.6-.3.1-.7.3-1.1.4-.4.1-.7.2-1.1.2-.3,0-.7.2-1,.2-.3,0-.7,0-1,0ZM571.9,199.3c0,0-.1-.2-.1-.3s0-.1,0-.1h-.4c0,0-.1.2-.3.4-.5.5-1,1-1.4,1.5-.5.5-.8,1.1-1.1,1.8,0,.2,0,.3,0,.3h.2c.2-.2.5-.5.7-.7s.5-.5.7-.7c.4-.2.7-.5,1-.9.2-.3.5-.7.7-1,0,0,.1-.2.1-.3Z" fill="#fbb040"/>
      <path d="M585,207c0,0-.2.2-.2.2s0,0-.2.1c0,0-.2.2-.4.4h0l-.2.2c-.2.3-.5.6-.8.9-.3.3-.6.6-.9.8-.6.6-1.4,1-2.2,1.2h-.2c-.5,0-.9,0-1.4-.1-.4-.2-.8-.5-1.2-.8-.5-.5-.7-1.2-.6-1.8h0c.1-.9.3-1.7.5-2.4.2-.7.4-1.4.6-2.1l1.5-4.2c.1-.6.4-1.3.7-2,.8-1.8,1.6-3.6,2.4-5.4.8-1.8,1.6-3.5,2.4-5.2v-.5c.3-.6.6-1.2.8-1.7.2-.5.6-1,1-1.5,0,0,.2-.2.2-.4,0-.2,0-.4.2-.6l2.9-7.4c0-.3.2-.7.4-1,.1-.3.3-.7.4-1,.1-.2.2-.5.3-.8,0-.3,0-.5.2-.8.1-.4.4-.7.7-.7.2,0,.4-.1.5-.1s.3,0,.4,0c.2,0,.4,0,.4.1.2,0,.4.2.5.3.2.3.3.6.2,1v.7c0,.2-.2.4-.2.6,0,.2,0,.3-.2.4-.3.7-.6,1.4-.8,2-.3.7-.6,1.3-.9,2-.7,1.5-1.4,3-2.1,4.5-.7,1.5-1.3,3-1.9,4.5-.3.7-.6,1.5-.8,2.2-.3.7-.6,1.5-.9,2.2l-2.2,4.7c-.1.4-.3.9-.5,1.3-.2.4-.4.8-.6,1.2,0,.2-.2.5-.3.8-.1.3-.3.6-.4.9-.9,2.1-1.6,4.3-2.3,6.6,0,0,0,.2,0,.4,0,.2,0,.4,0,.6v.3c0,.4.2.5.5.4.1,0,.3-.1.4-.2.1,0,.3-.2.4-.3.3-.3.6-.5,1-.7.3-.2.7-.4,1-.7l.3-.3h0l.8-.7h0c.3-.2.7-.5,1-.9,0-.1.2-.3.3-.4.1,0,.2-.2.3-.3l2.4-1.9c.3-.2.6-.5.8-.7.3-.2.6-.4.9-.7h.1c0,0,0,.2,0,.4,0,.2-.2.5-.3.7s-.3.4-.6.6c0,0-.2.2-.3.3s-.2.2-.3.3c-.2.2-.4.5-.6.8-.1.3-.3.5-.6.8-.2.2-.5.4-.6.6-.2.2-.4.5-.6.7l-1,1.3c0,0-.2.2-.2.2,0,0,0,0-.2.1h0Z" fill="#fbb040"/>
      <path d="M585.7,206.5c.7-1.6,1.3-3.3,1.9-4.9.6-1.6.9-3.3,1-5,.3-.2.6-.3.8-.4.2,0,.4-.1.7,0,.2,0,.5.2.7.4.3.2.6.5,1,.9.3-.2.6-.4.8-.6.2-.2.4-.5.6-.8.7-.5,1.4-1,2-1.4.7-.4,1.4-.8,2.2-1,.7,0,1.3-.1,2-.1s1.2.2,1.7.5c.5.2.7.5.7,1-.2.5-.4.7-.7.7h-.7c-.2,0-.4,0-.7-.1-.6,0-1.2,0-1.7.2-.6.1-1.1.5-1.6,1-1.4,1.3-2.7,2.6-3.9,4.1-1.2,1.4-2.2,3-3,4.9,0,.3-.2.6-.3.8-.1.2-.3.5-.5.8-.2.6-.6.8-1.2.6-.4,0-.7-.2-1.1-.4s-.6-.5-.9-1Z" fill="#fbb040"/>
      <path d="M605.5,219.6c.1.4.2.8,0,1-.8,1.7-1.6,3.4-2.4,5.1-.8,1.7-1.6,3.4-2.4,5.1-.6.9-1.2,1.8-1.9,2.7-.7.9-1.3,1.7-2,2.6-.5.7-1.2,1.3-1.8,1.7-.7.5-1.4.8-2.3,1-1,.4-1.9.6-2.7.5-.8,0-1.6-.4-2.2-1.1-.2-.1-.3-.3-.3-.6-.4-.8-.5-1.6-.3-2.5.2-.9.4-1.8.7-2.7.4-.9.9-1.8,1.3-2.7.4-.9,1-1.6,1.7-2.2.2-.2.4-.5.6-.7.1-.2.3-.5.5-.7,1-1.6,2.2-3,3.5-4.4,1.3-1.4,2.5-2.8,3.8-4.2.7-.8,1.5-1.5,2.3-2.2.9-.7,1.7-1.4,2.5-2.1.7-.4,1.3-.9,1.8-1.4.5-.6,1-1.1,1.5-1.7.2-.4.5-.9.8-1.4.3-.5.4-1,.4-1.5,0-.6.3-1.2.6-1.7.3-.5.4-1.2.2-1.8-.1,0-.3.2-.4.2,0,0-.2,0-.3.2-.3.3-.7.6-1,.9-.3.3-.7.6-1,.9-.5.4-1,.7-1.4,1-.4.3-.9.5-1.5.6-1,.3-1.9.3-2.6,0-.8-.3-1.2-1.1-1.4-2.4.1-.4.3-.9.4-1.4.1-.5.3-1.1.4-1.6,0-.7.3-1.3.6-1.7.3-.4.5-.9.8-1.4.3-.5.6-1.1,1-1.5.3-.5.7-1.1,1-1.7.2-.5.5-.9.9-1.2.4-.3.8-.5,1.3-.6.5,0,1,0,1.3.1.3.2.5.6.5,1.3-.8,1.2-1.6,2.4-2.4,3.8s-1.4,2.7-2,4.1c.2.2.4.3.6.3.1,0,.3-.2.4-.4,2.3-1.8,4.4-3.9,6.4-6.3.5-.5,1-1.1,1.6-1.6.3,0,.6.2.9.3.3,0,.7.2,1.1.3,0,.6-.1,1.3-.1,1.8,0,.6-.1,1.2-.5,1.8-.7,1.4-1.2,2.7-1.5,4-.3,1.3-.7,2.7-1.1,4.1,0,0,0,0,0,.1v.4c.2,0,.5-.2.7-.2.2,0,.5,0,.7,0,0,0,0,0,0,.1,0,0,0,0,0,.1,0,0,0,0,0,.1-.3.3-.6.5-.7.6-1.1.5-2,1.3-2.5,2.2s-.9,1.9-1.3,2.9c-.4.8-.8,1.6-1.1,2.4-.4.8-.7,1.6-1.1,2.3,0,.2-.2.4-.4.6-.2.2-.4.4-.5.6.1-.2.2-.4.3-.5,0,0,0-.2.1-.3,0,0,0,.2-.1.3,0,0-.1.2-.3.3ZM605.7,214.5c-.5,0-.9.1-1.3.4-.4.2-.7.5-1.1.9-.5.3-.9.6-1.3,1s-.8.8-1.3,1.2c-.4.4-.8.8-1.3,1.2-.5.4-1,.8-1.4,1.2-.6.6-1.2,1.2-1.7,1.9-.6.7-1,1.4-1.4,2.3-.4,1-1,1.9-1.5,2.9-.6.9-1.1,1.9-1.5,2.8-.4.7-.8,1.4-1,2.2-.2.8-.5,1.5-.7,2.2,0,.7,0,1.2.4,1.5s.8.3,1.4,0c.4-.2.8-.6,1.3-.9.4-.4.8-.7,1.1-1.1.8-.9,1.6-1.8,2.4-2.7.7-.9,1.4-1.9,1.9-3.2,0-.3.2-.6.4-.8.2-.2.4-.5.6-.8.4-.6.8-1.2,1.3-1.7.4-.5.8-1.1,1-1.7.4-1,.9-1.9,1.4-2.9.5-.9,1-1.9,1.4-2.8.2-.4.5-.8.7-1.3.2-.5.3-1.1.3-1.7Z" fill="#fbb040"/>
      <path d="M657.7,194.4c.7,0,1.4,0,2.1,0s1.3,0,1.9,0c.1,0,.3,0,.4,0,.1,0,.2,0,.3.1.2,0,.3,0,.3.3,0,.2,0,.3-.1.4-.1.3-.4.5-.7.7-.6.3-1.3.6-1.8.7-.4,0-.8.2-1.3.2-.4,0-.9.1-1.3.2-2.2.4-4.4,1-6.7,1.5-.4.2-.8.4-1,.7-.2.3-.3.5-.4.7-.8,1.4-1.5,2.7-2.2,4.1-.7,1.4-1.4,2.7-2.1,4.2-.2.3-.4.8-.5,1.4,0,.2-.2.5-.4.7s-.3.5-.4.7c-.4.8-.8,1.6-1.1,2.4-.3.8-.7,1.7-1,2.5-.2.2-.2.6-.1,1,0,.1.1.3.3.4s.3.1.4,0c.5-.2,1.1-.5,1.6-.7.5-.2,1.1-.4,1.6-.7.8-.3,1.7-.7,2.5-1,.8-.3,1.6-.7,2.5-1,.2,0,.3,0,.4-.1,1-.4,2.1-.8,3.1-1.1,1.1-.3,2.1-.6,3.2-.8.1,0,.3,0,.5,0s.3,0,.5-.1c.8-.3,1.7-.5,2.6-.5.9,0,1.8,0,2.7-.1.2,0,.5,0,.7,0,.5,0,1,0,1.5.1.5,0,1,0,1.5.2.4,0,.7.1,1,.2.3,0,.6.2,1,.4,0,0,0,.2.1.2,0,0,0,0,.1.2.2.2.2.4.1.7,0,.3-.2.5-.5.5,0,0-.2,0-.4,0-.1,0-.3,0-.4,0-.4,0-.8,0-1.3,0-.4,0-.9,0-1.3,0-1.7,0-3.4.2-5.1.6-2,.4-4,1-6,1.8-1.9.5-3.6,1.2-5.3,2-1.7.8-3.4,1.6-5,2.6-.5.3-1.1.6-1.6,1-.5.3-1,.7-1.6,1-.2.2-.5.4-.7.5s-.5.3-.7.5c-.3.2-.6.5-.8.7s-.4.6-.6,1c-.2.3-.4.7-.5,1-.1.3-.3.6-.5.9,0,.1-.2.2-.4.2-.2,0-.4,0-.5,0-.2,0-.4,0-.6,0-.2,0-.4,0-.7.2-.4.1-.8.3-1.2.4-.4.1-.8.3-1.2.5-.4.1-.9,0-1.4-.1-.8-.3-1.2-.9-1.2-1.7,0-.3,0-.5.2-.7.4-.3.8-.7,1.1-1,.3-.3.7-.7,1.1-1,.6-.5,1.1-1,1.7-1.5.5-.5,1-1,1.6-1.6.2-.2.4-.5.6-.7.1-.2.3-.5.6-.7s.5-.7.6-1.3c0-.5.2-1,.4-1.4.2-.4.4-.9.6-1.3.2-.5.5-1.1.7-1.6.2-.5.4-1,.6-1.5.3-.7.6-1.4.8-2,.2-.6.5-1.3.8-1.8,0-.2.2-.4.3-.6,0-.2.2-.4.2-.6.2-.5.4-1,.6-1.4.2-.4.4-.9.6-1.3.4-.6.6-1.2.7-1.8,0-.3,0-.7.1-1.2,0-.2,0-.3-.2-.4-.2,0-.3-.1-.5,0-.2,0-.5.2-.7.2-.2,0-.4,0-.6.1-.4.1-.7.2-1,.2-.2,0-.4.1-.6.1-.2,0-.4,0-.6-.1-.7,0-1.2-.4-1.4-1-.1,0-.2-.2-.1-.4,0-.6.4-1.1.9-1.4.3-.2.7-.4,1-.6.3-.2.7-.3,1-.5.5-.2,1.1-.5,1.6-.7.5-.2,1.1-.4,1.7-.5.2,0,.5-.1.8-.2.3,0,.6-.2.9-.3.7-.3,1.2-.7,1.5-1.3.2-.3.4-.6.5-.8.1-.3.3-.6.5-.8.5-.9,1-1.8,1.4-2.6.4-.9.9-1.7,1.4-2.5,0,0,.1-.2.1-.2.4-.6.8-1.3,1.1-1.9.3-.6.7-1.3,1.1-1.9.4-.7.8-1.3,1.1-1.9.4-.6.7-1.2,1.1-1.9.2-.3.4-.7.6-1.1.2-.4.3-.7.3-1.1,0-.2,0-.3-.2-.3-.3,0-.7-.1-.9,0-.3,0-.6.2-.8.3-.7.2-1.4.5-2,.8-.7.3-1.3.6-1.9,1-.6.3-1.3.7-1.9,1-.6.3-1.2.7-1.9,1.1-1.6.9-3,1.9-4.4,3-1.4,1.1-2.6,2.4-3.6,3.9,0,0,0,.2-.1.2,0,0-.1,0-.2.2-.2.2-.4.3-.7.3-.8,0-1.4-.1-1.8-.7-.2-.2-.4-.5-.5-.8-.1-.3-.3-.6-.4-.8-.2-.6-.2-1.2.1-1.6,0-.1.2-.3.3-.4,0-.1.2-.3.3-.4.8-.8,1.6-1.6,2.4-2.4.8-.7,1.7-1.4,2.7-2,.6-.3,1.2-.7,1.8-1,.6-.3,1.2-.6,1.8-1,.2,0,.5-.2.7-.3.2,0,.5-.2.7-.2.4,0,.9-.2,1.3-.4s.8-.3,1.1-.5c.5-.2,1-.5,1.4-.6.5-.2.9-.4,1.4-.6,1.1-.4,2.1-.8,3.2-1.1,1-.4,2.1-.7,3.2-1.1,0,0,.2,0,.2,0s.1,0,.2,0c.4-.1.9-.4,1.3-.8.2-.3.5-.7.8-1,.3-.3.5-.6.8-.9.2-.3.5-.4.9-.4,1.2-.2,2.3,0,3.3.7.4.2.9.3,1.3.2.6,0,1.2-.2,1.7-.4.6-.1,1.1-.3,1.7-.4.9-.2,1.9-.5,2.8-.7.9-.2,1.8-.4,2.7-.5.5,0,1-.2,1.4-.3.5,0,.9-.2,1.4-.3,1.1-.2,2.1-.5,3.2-.7,1.1-.2,2.1-.4,3.2-.7,1.3-.3,2.6-.6,3.9-.8,1.3-.3,2.6-.5,3.9-.8,1.3-.2,2.6-.5,3.9-.7,1.3-.2,2.6-.4,3.9-.7.7-.1,1.3,0,1.8.6.2.2.3.5.3.8,0,.3-.2.5-.4.6-.2,0-.5.1-.6.2-.2,0-.4.1-.6.2-1.1.2-2.2.5-3.2.7-1.1.2-2.2.5-3.2.7-.9.2-1.8.4-2.6.6-.9.2-1.7.4-2.6.6-.7.1-1.5.3-2.2.5-.7.2-1.5.3-2.2.4-.6,0-1.2.2-1.8.3-.6.1-1.2.3-1.7.4-1.2.4-2.4.7-3.6,1-1.2.2-2.4.5-3.6.7-1.2.2-2.4.5-3.5.7-1.2.2-2.4.5-3.6.9-.4,0-.9.2-1.3.4s-.9.3-1.3.4c-.2,0-.5.2-.6.4-.2.1-.3.3-.5.5-.3.4-.5.7-.6.9-.5.8-1,1.6-1.5,2.3-.5.8-1,1.6-1.5,2.4-.2.3-.3.5-.4.7-.6,1.1-1.2,2.1-1.8,3.2-.6,1.1-1.2,2.1-1.9,3.1-.4.8-.9,1.6-1.3,2.4s-.8,1.6-1.1,2.4c-.1.2-.2.5-.2.7,0,0,0,.2,0,.4.1.2.3.3.4.3.4,0,.7.1,1,.1.4,0,.8,0,1.2,0,.4,0,.8,0,1.2,0s.4,0,.6,0c.2,0,.3,0,.4,0Z" fill="#fbb040"/>
      <path d="M676.7,203.2c-1.3.7-2.5,1.4-3.5,2.1-1.1.7-2.1,1.5-3.1,2.3-.7.6-1.5,1.1-2.4,1.6-.9.5-1.7.8-2.6,1,.1-.4.3-.8.4-1,0-.2.2-.5.3-.7.1-.2.3-.4.5-.6.2-.2.5-.5.8-.8,1.1-.8,2.2-1.6,3.2-2.4,1-.8,2.1-1.7,3.2-2.5.2,0,.4-.2.6-.4.1-.2.3-.3.4-.4,0-.7-.3-1.2-.6-1.5-.3-.3-.6-.6-.8-1-.4-.7-.8-1.5-1-2.4.8-.2,1.5-.2,2.1-.1.6,0,1.1.3,1.6.6.5.3.9.6,1.3,1,.4.4.8.7,1.3,1,.8-.7,1.6-1.2,2.4-1.6.8-.4,1.6-.8,2.5-1.2.4-.2.8-.3,1.2-.1.3.1.7.3,1.1.4.6,0,.9.3.8,1-1.1.6-2.1,1.2-3.1,1.8-1,.6-2,1.3-3,2,.2.7.5,1.3,1,1.7.4.4.8.9,1.2,1.5.2.4.5.7.8,1.1.3.3.5.6.7.9,0,.2,0,.4.1.6,0,.2,0,.4.1.6-.2.4-.5.8-.9,1-.3,0-.7.2-1.1.2-.4,0-.7-.1-.9-.4-.2-.2-.4-.5-.6-.6-.1-.2-.3-.4-.6-.6-.5-.6-1.1-1.3-1.7-1.9-.6-.6-1.1-1.3-1.7-2Z" fill="#fbb040"/>
      <path d="M703.6,200.4c0,.2-.2.4-.3.5,0,.1-.1.3-.2.4-.2.4-.5.8-.8,1.1-.3.4-.5.7-.8,1.1-.4.4-.8.8-1,1.2-.3.3-.6.7-.9.9-.3.3-.6.5-1,.8-.1,0-.3.2-.5.4-.4.3-.8.7-1.3.9-.4.3-.9.5-1.3.8l-1.5.7c-1,.4-2,.6-3,.6h-.4c-.5,0-1-.2-1.5-.7,0,0-.2-.2-.3-.2,0,0-.1,0-.2-.2-.2-.1-.3-.4-.3-.9.1-.5.3-1,.6-1.4.1-.2.3-.4.4-.4.9-.9,1.9-1.8,3-2.7,1.1-.7,2.3-1.4,3.4-1.9.6-.3,1.3-.6,1.8-.8.6-.2,1.2-.5,1.7-.7l1.2-.7c.2-.1.4-.3.5-.5.1-.2.2-.4.1-.7,0-.4-.2-.7-.7-.9-.2,0-.6-.1-1-.1-1.1.1-2.1.5-2.9,1-1.3.8-2.6,1.7-3.8,2.7-1.2,1-2.2,2.1-3.2,3.4-.6.9-1.2,1.9-1.8,2.8-.5,1-1,1.9-1.5,2.9l-1.3,2.9-.7,1.9c-.1.4-.3.8-.4,1.2-.1.4-.3.8-.5,1.2-.4,1-.8,2-1,3-.2.5-.4,1-.5,1.5-.1.5-.3,1-.5,1.4,0,.2-.2.4-.2.6,0,.2,0,.4-.2.6-.2.5-.4,1.1-.6,1.5-.2.5-.4,1-.6,1.5l-.4.5c0,0-.2,0-.4.1-.1,0-.3,0-.4,0-.1,0-.2,0-.2-.3-.1-.6,0-1.4.1-2.1,0-.7.2-1.4.4-2,0-.1,0-.3,0-.5,0-.2,0-.4,0-.6,0-.5.2-1,.3-1.4.1-.5.3-1,.4-1.5.4-1.3.9-2.6,1.4-3.9.5-1.3,1-2.6,1.6-3.8l2.6-6c.4-.8.8-1.6,1.1-2.4s.7-1.6,1.1-2.4l.4-.9c.1-.5.3-1.1.6-1.6.2-.5.5-1,.8-1.6,0-.2.2-.4.3-.6,0-.2.2-.4.2-.6,0-.3.1-.5.1-.7,0-.2,0-.5,0-.7,0-.2.2-.5.3-.7,0-.1.3-.3.5-.4.7-.2,1.4-.2,2.1,0,.2,0,.4.2.6.4s.2.4.1.7l-.4,1c-.3.5-.6,1-.8,1.5s-.5,1-.7,1.4c0,.1,0,.4,0,.7s0,.1.1.2c0,0,.1,0,.2,0,.1,0,.3-.1.4-.2.1,0,.3-.2.4-.3,1-.8,2.1-1.5,3.3-2.1l1.1-.5c.6-.2,1.3-.4,1.9-.4.6,0,1.3,0,2,.1.8.1,1.5.6,2.1,1.3,0,0,.2.2.3.3,0,0,.2.2.3.3.3.5.5,1,.4,1.7,0,.6-.3,1.1-.5,1.5ZM698.6,202.8l-.2-.2c-.2,0-.5,0-.7.1l-3.3,1.8c-.4.2-.8.5-1.2.9-.4.3-.7.7-1,1.1-.2.2-.3.4-.4.5h0c0,.3.2.4.4.4.5,0,.9-.1,1.3-.3.4-.1.7-.3,1.1-.6.7-.5,1.3-1.1,1.9-1.6.6-.5,1.2-1.1,1.7-1.7l.4-.4h0Z" fill="#fbb040"/>
      <path d="M707.5,210.7c-.5,0-1,0-1.3-.2,0,0-.2,0-.3-.1,0,0-.2,0-.4-.1,0,0-.2,0-.2-.1s-.1,0-.2-.1c-.2-.2-.5-.5-.7-.7-.2-.2-.4-.4-.6-.7-.2-.4-.2-.9,0-1.4,0-.4.2-.8.4-1.2.1-.4.3-.8.4-1.3,0-.1.1-.3.2-.5,0-.2.2-.4.3-.5.2-.4.4-1,.6-1.6,0-.5.3-.9.6-1.2.2-.6.7-1.3,1.4-1.8.3-.3.6-.6.8-.9.3-.3.6-.6.8-.8.2,0,.4-.2.5-.3.3,0,.6-.2.8-.3.3,0,.6-.2,1-.3,0,0,.2,0,.3,0h.3c.4,0,.7.2.8.4.4.3.7.7,1,1,.2.3.4.6.5,1s0,.8-.1,1.2c-.3.4-.6.8-1,1.1-.4.4-.8.7-1.2,1.1-.5.4-1,.8-1.5,1.2-.5.4-1,.8-1.5,1.2-.3.2-.7.3-1.2.3-.2,0-.3,0-.4,0-.3.1-.5.3-.6.4-.2.4-.3.7-.3.9-.2.5-.3,1.2-.2,1.8,0,0,.2.2.2.3,0,0,.1.2.3.3.4,0,.7.1,1,0,.6,0,1.2-.3,1.8-.5.7-.2,1.3-.5,1.9-.8.6-.3,1.1-.6,1.7-1,.6-.4,1.3-.8,1.9-1.1.6-.4,1.2-.7,1.9-1.1.3,0,.5-.1.7-.1.1,0,.3,0,.5,0,.2.1.2.2.2.3-.1.7-.5,1.3-1.1,1.8-.5.3-1.1.6-1.6,1-.5.4-1,.8-1.4,1.2-.4.2-.8.5-1.2.8-.4.3-.9.5-1.4.6-.3.1-.7.3-1.1.4-.4.1-.7.2-1.1.2-.3,0-.7.2-1,.2-.3,0-.7,0-1,0ZM712.1,199.3c0,0-.1-.2-.1-.3s0-.1,0-.1h-.4c0,0-.1.2-.3.4-.5.5-1,1-1.4,1.5-.5.5-.8,1.1-1.1,1.8,0,.2,0,.3,0,.3h.2c.2-.2.5-.5.7-.7s.5-.5.7-.7c.4-.2.7-.5,1-.9.2-.3.5-.7.7-1,0,0,.1-.2.1-.3Z" fill="#fbb040"/>
      <path d="M716,206.5c.7-1.6,1.3-3.3,1.9-4.9.6-1.6.9-3.3,1-5,.3-.2.6-.3.8-.4.2,0,.4-.1.7,0,.2,0,.5.2.7.4.3.2.6.5,1,.9.3-.2.6-.4.8-.6.2-.2.4-.5.6-.8.7-.5,1.4-1,2-1.4.7-.4,1.4-.8,2.2-1,.7,0,1.3-.1,2-.1s1.2.2,1.7.5c.5.2.7.5.7,1-.2.5-.4.7-.7.7h-.7c-.2,0-.4,0-.7-.1-.6,0-1.2,0-1.7.2-.6.1-1.1.5-1.6,1-1.4,1.3-2.7,2.6-3.9,4.1-1.2,1.4-2.2,3-3,4.9,0,.3-.2.6-.3.8-.1.2-.3.5-.5.8-.2.6-.6.8-1.2.6-.4,0-.7-.2-1.1-.4s-.6-.5-.9-1Z" fill="#fbb040"/>
      <path d="M728,206.2c0-.3.2-.5.2-.7,0-.2.1-.3.2-.4.4-1.2,1-2.3,1.7-3.4.8-1.1,1.3-2,1.7-2.8,0-.2.2-.4.2-.6,0-.2.1-.4.2-.7,0-.2.2-.5.3-.7.1-.2.3-.4.5-.6,0-.2.2-.4.4-.4s.3,0,.6-.1h.2c.6,0,1,.2,1.3.9.1.1.2.4,0,.7-.2.4-.3.6-.4.7-.4.7-.9,1.3-1.3,1.8-.4.5-.8,1.2-1.1,1.9-.2.4-.5.9-.8,1.5-.3.6-.5,1.1-.7,1.5,0,0-.2.3-.3.7-.1.4-.2.7-.2.8,0,0,0,.2.2.2s.3,0,.4,0c.4,0,1-.2,1.6-.4.7-.2,1.4-.5,2.1-.8.8-.3,1.5-.7,2.3-1.1.8-.4,1.5-.8,2.3-1.3.4-.2.8-.4,1.2-.6.3-.2.7-.3,1.2-.4,0,0,.1.2.1.4v.2c-.1.2-.3.5-.6.6-.2.2-.5.4-.7.6-.5.4-1.2,1-2.1,1.5-.9.6-1.7,1.2-2.7,1.7-.9.6-1.8,1.1-2.7,1.5-.9.5-1.6.8-2.1,1-.5.2-1.1.3-1.7.1l-.7-.2c-.6-.3-1-.8-1.2-1.5,0-.1-.1-.2,0-.3,0,0,0-.1,0-.3,0-.4,0-.7,0-.9,0,0,0-.2,0-.3,0,0,0-.1,0,0ZM734.4,193.5c0,0,0-.2,0-.3s0-.2,0-.3c0-.4.2-.7.4-1,.1-.3.3-.6.4-.9,0,0,.1-.2.2-.2,0,0,.2-.1.3-.2.8-.2,1.5,0,2.1.4.4.4.5.8.2,1.2-.2.5-.6,1.1-1.1,1.6-.4.4-.9.7-1.6.8,0,0-.2,0-.2,0,0,0,0,0-.1,0-.3,0-.5-.3-.5-.5s0-.3,0-.4Z" fill="#fbb040"/>
      <path d="M743.3,210.7c-.5,0-1,0-1.3-.2,0,0-.2,0-.3-.1,0,0-.2,0-.4-.1,0,0-.2,0-.2-.1s-.1,0-.2-.1c-.2-.2-.5-.5-.7-.7-.2-.2-.4-.4-.6-.7-.2-.4-.2-.9,0-1.4,0-.4.2-.8.4-1.2.1-.4.3-.8.4-1.3,0-.1.1-.3.2-.5,0-.2.2-.4.3-.5.2-.4.4-1,.6-1.6,0-.5.3-.9.6-1.2.2-.6.7-1.3,1.4-1.8.3-.3.6-.6.8-.9.3-.3.6-.6.8-.8.2,0,.4-.2.5-.3.3,0,.6-.2.8-.3.3,0,.6-.2,1-.3,0,0,.2,0,.3,0h.3c.4,0,.7.2.8.4.4.3.7.7,1,1,.2.3.4.6.5,1s0,.8-.1,1.2c-.3.4-.6.8-1,1.1-.4.4-.8.7-1.2,1.1-.5.4-1,.8-1.5,1.2-.5.4-1,.8-1.5,1.2-.3.2-.7.3-1.2.3-.2,0-.3,0-.4,0-.3.1-.5.3-.6.4-.2.4-.3.7-.3.9-.2.5-.3,1.2-.2,1.8,0,0,.2.2.2.3,0,0,.1.2.3.3.4,0,.7.1,1,0,.6,0,1.2-.3,1.8-.5.7-.2,1.3-.5,1.9-.8.6-.3,1.1-.6,1.7-1,.6-.4,1.3-.8,1.9-1.1.6-.4,1.2-.7,1.9-1.1.3,0,.5-.1.7-.1.1,0,.3,0,.5,0,.2.1.2.2.2.3-.1.7-.5,1.3-1.1,1.8-.5.3-1.1.6-1.6,1-.5.4-1,.8-1.4,1.2-.4.2-.8.5-1.2.8-.4.3-.9.5-1.4.6-.3.1-.7.3-1.1.4-.4.1-.7.2-1.1.2-.3,0-.7.2-1,.2-.3,0-.7,0-1,0ZM747.9,199.3c0,0-.1-.2-.1-.3s0-.1,0-.1h-.4c0,0-.1.2-.3.4-.5.5-1,1-1.4,1.5-.5.5-.8,1.1-1.1,1.8,0,.2,0,.3,0,.3h.2c.2-.2.5-.5.7-.7s.5-.5.7-.7c.4-.2.7-.5,1-.9.2-.3.5-.7.7-1,0,0,.1-.2.1-.3Z" fill="#fbb040"/>
      <path d="M760.7,207.9c.5-.3,1.1-.7,1.7-1,.6-.3,1.1-.7,1.6-1.2.6-.4,1.2-.8,2-1.2.7-.4,1.4-.8,2-1.2.2,0,.4-.2.6-.3.2-.1.5-.2.7-.3s.5-.2.7-.3c.2,0,.4-.2.7-.3.2,0,.2,0,.1.2,0,.1,0,.3,0,.4,0,0,0,.2-.1.4l-1.5,1.2c-.1,0-.3.2-.5.3-.2.1-.3.2-.5.3l-2.8,2.7c-.6.5-1.2,1.1-1.8,1.6-.6.5-1.3,1.1-2,1.6-.2.1-.5.3-.7.5-.2.2-.5.4-.7.6-.2.1-.4.3-.6.4-.2.1-.3.2-.4.3-.7.2-1.2.2-1.6-.1l-.4-.3c-.3-.4-.6-.8-.7-1,0-.2,0-.6,0-1.3l.3-1.3c.2-.7.5-1.4.7-2,.2-.6.4-1.3.7-2l.7-1.8v-.7c.1-.2,0-.3-.1-.4-.1,0-.3,0-.4,0l-1.8,1.8c-.3.3-.6.7-1,.9-.4.3-.7.5-1.1.6-.1,0-.3.2-.4.2,0,0-.2.1-.3.3-.1.3-.5.6-1,.8l-.5.2c-.4.2-.8,0-1-.4-.2-.3-.2-.7-.1-1.1.2-.4.4-.8.5-1.1.1-.3.3-.7.4-1,.2-.4.5-.8.7-1.3.2-.4.4-.9.5-1.4,0-.4.2-.7.4-1,.1-.4.3-.9.5-1.3.2-.4.4-.9.5-1.4,0-.3.2-.6.3-.8.1-.2.2-.5.3-.7s.3-.4.7-.4h.7c.1,0,.3,0,.5,0,.2,0,.3.1.4.3.4.3.6.7.5,1.2,0,.2,0,.5-.1.7,0,.2-.1.5-.1.7,0,0,.1.1.3.1s.3,0,.4,0c.4-.4.8-.7,1.3-1,.5-.3.9-.6,1.3-1,.5-.3,1.1-.5,1.8-.5s.9.1,1.2.4c0,0,0,.2.1.3,0,0,0,.2,0,.3.1.3.2.5.1.6,0,.4-.2.7-.3,1l-2.6,5.6-1.3,3.4c-.2.6-.3,1.1-.2,1.5,0,.1,0,.2.2.2h.1c0,0,.1,0,.1,0Z" fill="#fbb040"/>
      <path d="M777.4,204.2c1-.7,2.1-1.4,3.4-2.1.2-.1.5-.3.7-.3.2,0,.5-.2.7-.3.2-.2.3-.2.3,0,.1.1.1.3,0,.4,0,0,0,.1,0,.2,0,.1-.2.3-.3.4-.1.1-.3.3-.4.4-.1,0-.3.2-.4.3s-.3.3-.4.4c-.1.2-.3.5-.6.8-.2.3-.4.5-.6.7-.4.2-.8.5-1.1.9-.3.3-.7.6-1.1.9l-.9.7-2.4,1.5c-1.2.6-2.4.9-3.8.9h-1c-.6,0-1-.3-1.3-.6-.2-.2-.4-.5-.6-.7-.1-.2-.3-.4-.4-.7,0,0,0,0,0-.1,0,0,0,0,0-.1,0-.3.2-.6.2-.9,0-.3,0-.6.1-.8.1-.8.2-1.4.1-1.9,0-.2,0-.3,0-.4.4-.4.7-.8,1-1.3.3-.5.6-1,.8-1.5,0-.3.2-.6.4-.8.2-.3.4-.6.5-.8,0-.2.2-.4.3-.5.1-.1.2-.3.3-.4.2,0,.4-.2.6-.4.1-.1.3-.3.5-.4.4-.2.8-.4,1.3-.6.3-.2.8-.2,1.3,0,.2,0,.3.2.4.4,0,.1.2.3.3.4l1.1,1.8c0,0-.3.2-.7.3-.3.2-1,.2-1.9,0h-.1c-.6.8-1.1,1.5-1.5,2.1-.4.7-.9,1.4-1.3,2.1-.2.5-.4,1-.5,1.4-.1.4-.2.9-.3,1.3,0,.2,0,.4,0,.5.2.2.4.3.5.3s.4,0,.7-.1c.4-.2.9-.4,1.3-.6.4-.2.9-.4,1.4-.7.3-.2.7-.5,1.1-.7.4-.2.7-.5,1.1-.7l1-.7h0c0,0,.1,0,.1,0Z" fill="#fbb040"/>
      <path d="M782.6,210.7c-.5,0-1,0-1.3-.2,0,0-.2,0-.3-.1,0,0-.2,0-.4-.1,0,0-.2,0-.2-.1s-.1,0-.2-.1c-.2-.2-.5-.5-.7-.7-.2-.2-.4-.4-.6-.7-.2-.4-.2-.9,0-1.4,0-.4.2-.8.4-1.2.1-.4.3-.8.4-1.3,0-.1.1-.3.2-.5,0-.2.2-.4.3-.5.2-.4.4-1,.6-1.6,0-.5.3-.9.6-1.2.2-.6.7-1.3,1.4-1.8.3-.3.6-.6.8-.9.3-.3.6-.6.8-.8.2,0,.4-.2.5-.3.3,0,.6-.2.8-.3.3,0,.6-.2,1-.3,0,0,.2,0,.3,0h.3c.4,0,.7.2.8.4.4.3.7.7,1,1,.2.3.4.6.5,1s0,.8-.1,1.2c-.3.4-.6.8-1,1.1-.4.4-.8.7-1.2,1.1-.5.4-1,.8-1.5,1.2-.5.4-1,.8-1.5,1.2-.3.2-.7.3-1.2.3-.2,0-.3,0-.4,0-.3.1-.5.3-.6.4-.2.4-.3.7-.3.9-.2.5-.3,1.2-.2,1.8,0,0,.2.2.2.3,0,0,.1.2.3.3.4,0,.7.1,1,0,.6,0,1.2-.3,1.8-.5.7-.2,1.3-.5,1.9-.8.6-.3,1.1-.6,1.7-1,.6-.4,1.3-.8,1.9-1.1.6-.4,1.2-.7,1.9-1.1.3,0,.5-.1.7-.1.1,0,.3,0,.5,0,.2.1.2.2.2.3-.1.7-.5,1.3-1.1,1.8-.5.3-1.1.6-1.6,1-.5.4-1,.8-1.4,1.2-.4.2-.8.5-1.2.8-.4.3-.9.5-1.4.6-.3.1-.7.3-1.1.4-.4.1-.7.2-1.1.2-.3,0-.7.2-1,.2-.3,0-.7,0-1,0ZM787.3,199.3c0,0-.1-.2-.1-.3s0-.1,0-.1h-.4c0,0-.1.2-.3.4-.5.5-1,1-1.4,1.5-.5.5-.8,1.1-1.1,1.8,0,.2,0,.3,0,.3h.2c.2-.2.5-.5.7-.7s.5-.5.7-.7c.4-.2.7-.5,1-.9.2-.3.5-.7.7-1,0,0,.1-.2.1-.3Z" fill="#fbb040"/>
    </g>
  </g>
</svg>