<?xml version="1.0" encoding="UTF-8"?>
<svg xmlns="http://www.w3.org/2000/svg" version="1.1" viewBox="0 0 300 300">
  <!-- Generator: Adobe Illustrator 28.6.0, SVG Export Plug-In . SVG Version: 1.2.0 Build 709)  -->
  <g>
    <g id="Layer_1">
      <g>
        <g>
          <polygon points="151.9 264.4 189.1 183.8 151.9 183.8 151.9 264.4"/>
          <polygon points="110.9 180 146.7 180 129.6 147.6 110.9 180"/>
          <polygon points="148.1 264.4 148.1 183.8 110.9 183.8 148.1 264.4"/>
          <polygon points="203.7 144.8 173.1 144.8 191.8 177.2 203.7 144.8"/>
          <polygon points="189.1 180 170.4 147.6 153.3 180 189.1 180"/>
          <polygon points="193.3 183.8 192.5 185.9 192.3 185.6 154 268.5 233.4 183.8 193.3 183.8"/>
          <polygon points="150 178.3 167.7 144.8 150 144.8 132.3 144.8 150 178.3"/>
          <polygon points="194.7 180 233.7 180 207 146.5 194.7 180"/>
          <polygon points="108.2 177.2 126.9 144.8 96.3 144.8 108.2 177.2"/>
          <polygon points="107.7 185.6 107.5 185.9 106.7 183.8 66.6 183.8 146 268.5 107.7 185.6"/>
          <polygon points="105.3 180 93 146.5 66.3 180 105.3 180"/>
        </g>
        <g>
          <g>
            <rect x="105.3" y="126.7" width="89.5" height="7.1" fill="#fbb040"/>
            <path d="M97.2,92.9c11.5,0,20.2-3.2,27-8-18.7-24.5-48.2-22.9-48.2-22.9l15.8,30.5,3.3.3s.8,0,2.1,0h0Z" fill="#fbb040"/>
            <path d="M204.8,92.8l3.3-.3,15.9-30.5s-29.5-1.6-48.2,22.9c6.7,4.7,15.5,8,27,8s2.1,0,2.1,0h0Z" fill="#fbb040"/>
            <rect x="135.7" y="37.4" width="28.7" height="28.7" transform="translate(7.3 121.2) rotate(-45)" fill="#fbb040"/>
            <path d="M157.3,72l-7.3,7.3-7.3-7.3c-16.3,28.9-48,25.9-48,25.9l10.6,22.9h89.5l10.6-22.9s-31.6,3-48-25.9h0ZM111.8,110.9c-2.1,0-3.8-1.7-3.8-3.8s1.7-3.8,3.8-3.8,3.8,1.7,3.8,3.8-1.7,3.8-3.8,3.8ZM129.6,108.1c-2.1,0-3.8-1.7-3.8-3.8s1.7-3.8,3.8-3.8,3.8,1.7,3.8,3.8-1.7,3.8-3.8,3.8ZM150,112.9l-11.2-11.2,11.2-11.2,11.2,11.2-11.2,11.2ZM170.4,108.1c-2.1,0-3.8-1.7-3.8-3.8s1.7-3.8,3.8-3.8,3.8,1.7,3.8,3.8-1.7,3.8-3.8,3.8ZM188.1,110.9c-2.1,0-3.8-1.7-3.8-3.8s1.7-3.8,3.8-3.8,3.8,1.7,3.8,3.8-1.7,3.8-3.8,3.8Z" fill="#fbb040"/>
          </g>
          <g>
            <path d="M122.6,42.2c.1.8.2,1.7.2,2.6,0,9.3-7.6,16.9-16.9,16.9s-6.7-1.1-9.4-2.9c2.6,4.7,7.7,7.9,13.5,7.9,8.5,0,15.5-6.9,15.5-15.5s-1.1-6.5-2.9-9h0Z" fill="#fbb040"/>
            <path d="M177.4,42.2c-.1.8-.2,1.7-.2,2.6,0,9.3,7.6,16.9,16.9,16.9s6.7-1.1,9.4-2.9c-2.6,4.7-7.7,7.9-13.5,7.9-8.6,0-15.5-6.9-15.5-15.5s1.1-6.5,2.9-9h0Z" fill="#fbb040"/>
          </g>
        </g>
      </g>
    </g>
  </g>
</svg>